<svg width="508" height="40" viewBox="0 0 508 40" fill="none" xmlns="http://www.w3.org/2000/svg">
<path d="M17.3474 4.728V21.936C17.3474 24.6 16.5914 26.652 15.0794 28.092C13.5914 29.532 11.5754 30.252 9.03139 30.252C6.36739 30.252 4.23139 29.496 2.62339 27.984C1.01539 26.472 0.211391 24.324 0.211391 21.54H6.33139C6.33139 22.596 6.54739 23.4 6.97939 23.952C7.41139 24.48 8.03539 24.744 8.85139 24.744C9.59539 24.744 10.1714 24.504 10.5794 24.024C10.9874 23.544 11.1914 22.848 11.1914 21.936V4.728H17.3474ZM21.0959 19.92C21.0959 17.856 21.4799 16.044 22.2479 14.484C23.0399 12.924 24.1079 11.724 25.4519 10.884C26.7959 10.044 28.2959 9.624 29.9519 9.624C31.3679 9.624 32.6039 9.912 33.6599 10.488C34.7399 11.064 35.5679 11.82 36.1439 12.756V9.912H42.2999V30H36.1439V27.156C35.5439 28.092 34.7039 28.848 33.6239 29.424C32.5679 30 31.3319 30.288 29.9159 30.288C28.2839 30.288 26.7959 29.868 25.4519 29.028C24.1079 28.164 23.0399 26.952 22.2479 25.392C21.4799 23.808 21.0959 21.984 21.0959 19.92ZM36.1439 19.956C36.1439 18.42 35.7119 17.208 34.8479 16.32C34.0079 15.432 32.9759 14.988 31.7519 14.988C30.5279 14.988 29.4839 15.432 28.6199 16.32C27.7799 17.184 27.3599 18.384 27.3599 19.92C27.3599 21.456 27.7799 22.68 28.6199 23.592C29.4839 24.48 30.5279 24.924 31.7519 24.924C32.9759 24.924 34.0079 24.48 34.8479 23.592C35.7119 22.704 36.1439 21.492 36.1439 19.956ZM36.6119 4.908L27.9359 8.544V4.296L36.6119 0.119998V4.908ZM62.5544 30.288C60.8024 30.288 59.2424 29.988 57.8744 29.388C56.5064 28.788 55.4264 27.972 54.6344 26.94C53.8424 25.884 53.3984 24.708 53.3024 23.412H59.3864C59.4584 24.108 59.7824 24.672 60.3584 25.104C60.9344 25.536 61.6424 25.752 62.4824 25.752C63.2504 25.752 63.8384 25.608 64.2464 25.32C64.6784 25.008 64.8944 24.612 64.8944 24.132C64.8944 23.556 64.5944 23.136 63.9944 22.872C63.3944 22.584 62.4224 22.272 61.0784 21.936C59.6384 21.6 58.4384 21.252 57.4784 20.892C56.5184 20.508 55.6904 19.92 54.9944 19.128C54.2984 18.312 53.9504 17.22 53.9504 15.852C53.9504 14.7 54.2624 13.656 54.8864 12.72C55.5344 11.76 56.4704 11.004 57.6944 10.452C58.9424 9.9 60.4184 9.624 62.1224 9.624C64.6424 9.624 66.6224 10.248 68.0624 11.496C69.5264 12.744 70.3664 14.4 70.5824 16.464H64.8944C64.7984 15.768 64.4864 15.216 63.9584 14.808C63.4544 14.4 62.7824 14.196 61.9424 14.196C61.2224 14.196 60.6704 14.34 60.2864 14.628C59.9024 14.892 59.7104 15.264 59.7104 15.744C59.7104 16.32 60.0104 16.752 60.6104 17.04C61.2344 17.328 62.1944 17.616 63.4904 17.904C64.9784 18.288 66.1904 18.672 67.1264 19.056C68.0624 19.416 68.8784 20.016 69.5744 20.856C70.2944 21.672 70.6664 22.776 70.6904 24.168C70.6904 25.344 70.3544 26.4 69.6824 27.336C69.0344 28.248 68.0864 28.968 66.8384 29.496C65.6144 30.024 64.1864 30.288 62.5544 30.288ZM73.2326 19.92C73.2326 17.856 73.6166 16.044 74.3846 14.484C75.1766 12.924 76.2446 11.724 77.5886 10.884C78.9326 10.044 80.4326 9.624 82.0886 9.624C83.5046 9.624 84.7406 9.912 85.7966 10.488C86.8766 11.064 87.7046 11.82 88.2806 12.756V9.912H94.4366V30H88.2806V27.156C87.6806 28.092 86.8406 28.848 85.7606 29.424C84.7046 30 83.4686 30.288 82.0526 30.288C80.4206 30.288 78.9326 29.868 77.5886 29.028C76.2446 28.164 75.1766 26.952 74.3846 25.392C73.6166 23.808 73.2326 21.984 73.2326 19.92ZM88.2806 19.956C88.2806 18.42 87.8486 17.208 86.9846 16.32C86.1446 15.432 85.1126 14.988 83.8886 14.988C82.6646 14.988 81.6206 15.432 80.7566 16.32C79.9166 17.184 79.4966 18.384 79.4966 19.92C79.4966 21.456 79.9166 22.68 80.7566 23.592C81.6206 24.48 82.6646 24.924 83.8886 24.924C85.1126 24.924 86.1446 24.48 86.9846 23.592C87.8486 22.704 88.2806 21.492 88.2806 19.956ZM105.046 12.756C105.622 11.82 106.45 11.064 107.53 10.488C108.61 9.912 109.846 9.624 111.238 9.624C112.894 9.624 114.394 10.044 115.738 10.884C117.082 11.724 118.138 12.924 118.906 14.484C119.698 16.044 120.094 17.856 120.094 19.92C120.094 21.984 119.698 23.808 118.906 25.392C118.138 26.952 117.082 28.164 115.738 29.028C114.394 29.868 112.894 30.288 111.238 30.288C109.822 30.288 108.586 30.012 107.53 29.46C106.474 28.884 105.646 28.128 105.046 27.192V30H98.8902V3.36H105.046V12.756ZM113.83 19.92C113.83 18.384 113.398 17.184 112.534 16.32C111.694 15.432 110.65 14.988 109.402 14.988C108.178 14.988 107.134 15.432 106.27 16.32C105.43 17.208 105.01 18.42 105.01 19.956C105.01 21.492 105.43 22.704 106.27 23.592C107.134 24.48 108.178 24.924 109.402 24.924C110.626 24.924 111.67 24.48 112.534 23.592C113.398 22.68 113.83 21.456 113.83 19.92ZM142.26 19.632C142.26 20.208 142.224 20.808 142.152 21.432H128.22C128.316 22.68 128.712 23.64 129.408 24.312C130.128 24.96 131.004 25.284 132.036 25.284C133.572 25.284 134.64 24.636 135.24 23.34H141.792C141.456 24.66 140.844 25.848 139.956 26.904C139.092 27.96 138 28.788 136.68 29.388C135.36 29.988 133.884 30.288 132.252 30.288C130.284 30.288 128.532 29.868 126.996 29.028C125.46 28.188 124.26 26.988 123.396 25.428C122.532 23.868 122.1 22.044 122.1 19.956C122.1 17.868 122.52 16.044 123.36 14.484C124.224 12.924 125.424 11.724 126.96 10.884C128.496 10.044 130.26 9.624 132.252 9.624C134.196 9.624 135.924 10.032 137.436 10.848C138.948 11.664 140.124 12.828 140.964 14.34C141.828 15.852 142.26 17.616 142.26 19.632ZM135.96 18.012C135.96 16.956 135.6 16.116 134.88 15.492C134.16 14.868 133.26 14.556 132.18 14.556C131.148 14.556 130.272 14.856 129.552 15.456C128.856 16.056 128.424 16.908 128.256 18.012H135.96ZM159.292 12.756C159.892 11.82 160.72 11.064 161.776 10.488C162.832 9.912 164.068 9.624 165.484 9.624C167.14 9.624 168.64 10.044 169.984 10.884C171.328 11.724 172.384 12.924 173.152 14.484C173.944 16.044 174.34 17.856 174.34 19.92C174.34 21.984 173.944 23.808 173.152 25.392C172.384 26.952 171.328 28.164 169.984 29.028C168.64 29.868 167.14 30.288 165.484 30.288C164.092 30.288 162.856 30 161.776 29.424C160.72 28.848 159.892 28.104 159.292 27.192V39.576H153.136V9.912H159.292V12.756ZM168.076 19.92C168.076 18.384 167.644 17.184 166.78 16.32C165.94 15.432 164.896 14.988 163.648 14.988C162.424 14.988 161.38 15.432 160.516 16.32C159.676 17.208 159.256 18.42 159.256 19.956C159.256 21.492 159.676 22.704 160.516 23.592C161.38 24.48 162.424 24.924 163.648 24.924C164.872 24.924 165.916 24.48 166.78 23.592C167.644 22.68 168.076 21.456 168.076 19.92ZM186.714 30.288C184.746 30.288 182.97 29.868 181.386 29.028C179.826 28.188 178.59 26.988 177.678 25.428C176.79 23.868 176.346 22.044 176.346 19.956C176.346 17.892 176.802 16.08 177.714 14.52C178.626 12.936 179.874 11.724 181.458 10.884C183.042 10.044 184.818 9.624 186.786 9.624C188.754 9.624 190.53 10.044 192.114 10.884C193.698 11.724 194.946 12.936 195.858 14.52C196.77 16.08 197.226 17.892 197.226 19.956C197.226 22.02 196.758 23.844 195.822 25.428C194.91 26.988 193.65 28.188 192.042 29.028C190.458 29.868 188.682 30.288 186.714 30.288ZM186.714 24.96C187.89 24.96 188.886 24.528 189.702 23.664C190.542 22.8 190.962 21.564 190.962 19.956C190.962 18.348 190.554 17.112 189.738 16.248C188.946 15.384 187.962 14.952 186.786 14.952C185.586 14.952 184.59 15.384 183.798 16.248C183.006 17.088 182.61 18.324 182.61 19.956C182.61 21.564 182.994 22.8 183.762 23.664C184.554 24.528 185.538 24.96 186.714 24.96ZM206.648 13.26C207.368 12.156 208.268 11.292 209.348 10.668C210.428 10.02 211.628 9.696 212.948 9.696V16.212H211.256C209.72 16.212 208.568 16.548 207.8 17.22C207.032 17.868 206.648 19.02 206.648 20.676V30H200.492V9.912H206.648V13.26ZM232.663 30.288C230.695 30.288 228.919 29.868 227.335 29.028C225.775 28.188 224.539 26.988 223.627 25.428C222.739 23.868 222.295 22.044 222.295 19.956C222.295 17.892 222.751 16.08 223.663 14.52C224.575 12.936 225.823 11.724 227.407 10.884C228.991 10.044 230.767 9.624 232.735 9.624C234.703 9.624 236.479 10.044 238.063 10.884C239.647 11.724 240.895 12.936 241.807 14.52C242.719 16.08 243.175 17.892 243.175 19.956C243.175 22.02 242.707 23.844 241.771 25.428C240.859 26.988 239.599 28.188 237.991 29.028C236.407 29.868 234.631 30.288 232.663 30.288ZM232.663 24.96C233.839 24.96 234.835 24.528 235.651 23.664C236.491 22.8 236.911 21.564 236.911 19.956C236.911 18.348 236.503 17.112 235.687 16.248C234.895 15.384 233.911 14.952 232.735 14.952C231.535 14.952 230.539 15.384 229.747 16.248C228.955 17.088 228.559 18.324 228.559 19.956C228.559 21.564 228.943 22.8 229.711 23.664C230.503 24.528 231.487 24.96 232.663 24.96ZM258.681 9.696C261.033 9.696 262.905 10.464 264.297 12C265.713 13.512 266.421 15.6 266.421 18.264V30H260.301V19.092C260.301 17.748 259.953 16.704 259.257 15.96C258.561 15.216 257.625 14.844 256.449 14.844C255.273 14.844 254.337 15.216 253.641 15.96C252.945 16.704 252.597 17.748 252.597 19.092V30H246.441V9.912H252.597V12.576C253.221 11.688 254.061 10.992 255.117 10.488C256.173 9.96 257.361 9.696 258.681 9.696ZM269.475 19.92C269.475 17.856 269.859 16.044 270.627 14.484C271.419 12.924 272.487 11.724 273.831 10.884C275.175 10.044 276.675 9.624 278.331 9.624C279.651 9.624 280.851 9.9 281.931 10.452C283.035 11.004 283.899 11.748 284.523 12.684V3.36H290.679V30H284.523V27.12C283.947 28.08 283.119 28.848 282.039 29.424C280.983 30 279.747 30.288 278.331 30.288C276.675 30.288 275.175 29.868 273.831 29.028C272.487 28.164 271.419 26.952 270.627 25.392C269.859 23.808 269.475 21.984 269.475 19.92ZM284.523 19.956C284.523 18.42 284.091 17.208 283.227 16.32C282.387 15.432 281.355 14.988 280.131 14.988C278.907 14.988 277.863 15.432 276.999 16.32C276.159 17.184 275.739 18.384 275.739 19.92C275.739 21.456 276.159 22.68 276.999 23.592C277.863 24.48 278.907 24.924 280.131 24.924C281.355 24.924 282.387 24.48 283.227 23.592C284.091 22.704 284.523 21.492 284.523 19.956ZM314.068 19.632C314.068 20.208 314.032 20.808 313.96 21.432H300.028C300.124 22.68 300.52 23.64 301.216 24.312C301.936 24.96 302.812 25.284 303.844 25.284C305.38 25.284 306.448 24.636 307.048 23.34H313.6C313.264 24.66 312.652 25.848 311.764 26.904C310.9 27.96 309.808 28.788 308.488 29.388C307.168 29.988 305.692 30.288 304.06 30.288C302.092 30.288 300.34 29.868 298.804 29.028C297.268 28.188 296.068 26.988 295.204 25.428C294.34 23.868 293.908 22.044 293.908 19.956C293.908 17.868 294.328 16.044 295.168 14.484C296.032 12.924 297.232 11.724 298.768 10.884C300.304 10.044 302.068 9.624 304.06 9.624C306.004 9.624 307.732 10.032 309.244 10.848C310.756 11.664 311.932 12.828 312.772 14.34C313.636 15.852 314.068 17.616 314.068 19.632ZM307.768 18.012C307.768 16.956 307.408 16.116 306.688 15.492C305.968 14.868 305.068 14.556 303.988 14.556C302.956 14.556 302.08 14.856 301.36 15.456C300.664 16.056 300.232 16.908 300.064 18.012H307.768ZM323.721 19.956C323.721 17.868 324.141 16.044 324.981 14.484C325.845 12.924 327.033 11.724 328.545 10.884C330.081 10.044 331.833 9.624 333.801 9.624C336.321 9.624 338.421 10.284 340.101 11.604C341.805 12.924 342.921 14.784 343.449 17.184H336.897C336.345 15.648 335.277 14.88 333.693 14.88C332.565 14.88 331.665 15.324 330.993 16.212C330.321 17.076 329.985 18.324 329.985 19.956C329.985 21.588 330.321 22.848 330.993 23.736C331.665 24.6 332.565 25.032 333.693 25.032C335.277 25.032 336.345 24.264 336.897 22.728H343.449C342.921 25.08 341.805 26.928 340.101 28.272C338.397 29.616 336.297 30.288 333.801 30.288C331.833 30.288 330.081 29.868 328.545 29.028C327.033 28.188 325.845 26.988 324.981 25.428C324.141 23.868 323.721 22.044 323.721 19.956ZM355.886 30.288C353.918 30.288 352.142 29.868 350.558 29.028C348.998 28.188 347.762 26.988 346.85 25.428C345.962 23.868 345.518 22.044 345.518 19.956C345.518 17.892 345.974 16.08 346.886 14.52C347.798 12.936 349.046 11.724 350.63 10.884C352.214 10.044 353.99 9.624 355.958 9.624C357.926 9.624 359.702 10.044 361.286 10.884C362.87 11.724 364.118 12.936 365.03 14.52C365.942 16.08 366.398 17.892 366.398 19.956C366.398 22.02 365.93 23.844 364.994 25.428C364.082 26.988 362.822 28.188 361.214 29.028C359.63 29.868 357.854 30.288 355.886 30.288ZM355.886 24.96C357.062 24.96 358.058 24.528 358.874 23.664C359.714 22.8 360.134 21.564 360.134 19.956C360.134 18.348 359.726 17.112 358.91 16.248C358.118 15.384 357.134 14.952 355.958 14.952C354.758 14.952 353.762 15.384 352.97 16.248C352.178 17.088 351.782 18.324 351.782 19.956C351.782 21.564 352.166 22.8 352.934 23.664C353.726 24.528 354.71 24.96 355.886 24.96ZM395.296 9.696C397.792 9.696 399.772 10.452 401.236 11.964C402.724 13.476 403.468 15.576 403.468 18.264V30H397.348V19.092C397.348 17.796 397 16.8 396.304 16.104C395.632 15.384 394.696 15.024 393.496 15.024C392.296 15.024 391.348 15.384 390.652 16.104C389.98 16.8 389.644 17.796 389.644 19.092V30H383.524V19.092C383.524 17.796 383.176 16.8 382.48 16.104C381.808 15.384 380.872 15.024 379.672 15.024C378.472 15.024 377.524 15.384 376.828 16.104C376.156 16.8 375.82 17.796 375.82 19.092V30H369.664V9.912H375.82V12.432C376.444 11.592 377.26 10.932 378.268 10.452C379.276 9.948 380.416 9.696 381.688 9.696C383.2 9.696 384.544 10.02 385.72 10.668C386.92 11.316 387.856 12.24 388.528 13.44C389.224 12.336 390.172 11.436 391.372 10.74C392.572 10.044 393.88 9.696 395.296 9.696ZM426.709 19.632C426.709 20.208 426.673 20.808 426.601 21.432H412.669C412.765 22.68 413.161 23.64 413.857 24.312C414.577 24.96 415.453 25.284 416.485 25.284C418.021 25.284 419.089 24.636 419.689 23.34H426.241C425.905 24.66 425.293 25.848 424.405 26.904C423.541 27.96 422.449 28.788 421.129 29.388C419.809 29.988 418.333 30.288 416.701 30.288C414.733 30.288 412.981 29.868 411.445 29.028C409.909 28.188 408.709 26.988 407.845 25.428C406.981 23.868 406.549 22.044 406.549 19.956C406.549 17.868 406.969 16.044 407.809 14.484C408.673 12.924 409.873 11.724 411.409 10.884C412.945 10.044 414.709 9.624 416.701 9.624C418.645 9.624 420.373 10.032 421.885 10.848C423.397 11.664 424.573 12.828 425.413 14.34C426.277 15.852 426.709 17.616 426.709 19.632ZM420.409 18.012C420.409 16.956 420.049 16.116 419.329 15.492C418.609 14.868 417.709 14.556 416.629 14.556C415.597 14.556 414.721 14.856 414.001 15.456C413.305 16.056 412.873 16.908 412.705 18.012H420.409ZM438.705 25.032C440.289 25.032 441.357 24.264 441.909 22.728H448.461C448.005 24.768 447.093 26.436 445.725 27.732C444.357 29.028 442.653 29.832 440.613 30.144V31.476C441.861 31.476 442.953 31.812 443.889 32.484C444.825 33.18 445.293 34.212 445.293 35.58C445.293 36.948 444.801 37.98 443.817 38.676C442.833 39.396 441.657 39.756 440.289 39.756H434.745V36.372H439.461C439.941 36.372 440.301 36.3 440.541 36.156C440.781 36.012 440.901 35.772 440.901 35.436C440.901 35.1 440.781 34.86 440.541 34.716C440.301 34.596 439.941 34.536 439.461 34.536H436.905V30.144C434.433 29.76 432.453 28.668 430.965 26.868C429.477 25.044 428.733 22.74 428.733 19.956C428.733 17.868 429.153 16.044 429.993 14.484C430.857 12.924 432.045 11.724 433.557 10.884C435.093 10.044 436.845 9.624 438.813 9.624C441.333 9.624 443.433 10.284 445.113 11.604C446.817 12.924 447.933 14.784 448.461 17.184H441.909C441.357 15.648 440.289 14.88 438.705 14.88C437.577 14.88 436.677 15.324 436.005 16.212C435.333 17.076 434.997 18.324 434.997 19.956C434.997 21.588 435.333 22.848 436.005 23.736C436.677 24.6 437.577 25.032 438.705 25.032ZM450.529 19.92C450.529 17.856 450.913 16.044 451.681 14.484C452.473 12.924 453.541 11.724 454.885 10.884C456.229 10.044 457.729 9.624 459.385 9.624C460.801 9.624 462.037 9.912 463.093 10.488C464.173 11.064 465.001 11.82 465.577 12.756V9.912H471.733V30H465.577V27.156C464.977 28.092 464.137 28.848 463.057 29.424C462.001 30 460.765 30.288 459.349 30.288C457.717 30.288 456.229 29.868 454.885 29.028C453.541 28.164 452.473 26.952 451.681 25.392C450.913 23.808 450.529 21.984 450.529 19.92ZM465.577 19.956C465.577 18.42 465.145 17.208 464.281 16.32C463.441 15.432 462.409 14.988 461.185 14.988C459.961 14.988 458.917 15.432 458.053 16.32C457.213 17.184 456.793 18.384 456.793 19.92C456.793 21.456 457.213 22.68 458.053 23.592C458.917 24.48 459.961 24.924 461.185 24.924C462.409 24.924 463.441 24.48 464.281 23.592C465.145 22.704 465.577 21.492 465.577 19.956ZM482.343 13.26C483.063 12.156 483.963 11.292 485.043 10.668C486.123 10.02 487.323 9.696 488.643 9.696V16.212H486.951C485.415 16.212 484.263 16.548 483.495 17.22C482.727 17.868 482.343 19.02 482.343 20.676V30H476.187V9.912H482.343V13.26ZM498.966 3.324C501.534 3.324 503.586 3.996 505.122 5.34C506.682 6.684 507.462 8.58 507.462 11.028C507.462 13.284 506.718 15.048 505.23 16.32C503.766 17.568 501.822 18.204 499.398 18.228L499.218 20.928H493.818L493.638 14.232H495.798C497.646 14.232 499.05 14.004 500.01 13.548C500.994 13.092 501.486 12.264 501.486 11.064C501.486 10.224 501.258 9.564 500.802 9.084C500.346 8.604 499.71 8.364 498.894 8.364C498.03 8.364 497.358 8.616 496.878 9.12C496.398 9.6 496.158 10.26 496.158 11.1H490.362C490.314 9.636 490.614 8.316 491.262 7.14C491.934 5.964 492.918 5.04 494.214 4.368C495.534 3.672 497.118 3.324 498.966 3.324ZM496.59 30.288C495.51 30.288 494.622 29.976 493.926 29.352C493.254 28.704 492.918 27.912 492.918 26.976C492.918 26.016 493.254 25.212 493.926 24.564C494.622 23.916 495.51 23.592 496.59 23.592C497.646 23.592 498.51 23.916 499.182 24.564C499.878 25.212 500.226 26.016 500.226 26.976C500.226 27.912 499.878 28.704 499.182 29.352C498.51 29.976 497.646 30.288 496.59 30.288Z" fill="white"/>
</svg>
